G04 EAGLE Gerber RS-274X export*
G75*
%MOMM*%
%FSLAX34Y34*%
%LPD*%
%INTop Copper*%
%IPPOS*%
%AMOC8*
5,1,8,0,0,1.08239X$1,22.5*%
G01*
%ADD10C,1.524000*%
%ADD11P,1.429621X8X22.500000*%
%ADD12C,1.879600*%
%ADD13C,1.016000*%


D10*
X703580Y1092200D02*
X718820Y1092200D01*
X718820Y1066800D02*
X703580Y1066800D01*
D11*
X197100Y1491400D03*
X222500Y1491400D03*
X422400Y1491400D03*
X447800Y1491400D03*
X614300Y1491400D03*
X639700Y1491400D03*
D12*
X88900Y1143000D03*
X88900Y1066800D03*
D13*
X711200Y1066800D02*
X711200Y885200D01*
X600000Y774000D01*
X220000Y774000D01*
X88900Y905100D01*
X88900Y1066800D01*
X639700Y1440300D02*
X639700Y1491400D01*
X711200Y1368800D02*
X711200Y1092200D01*
X711200Y1368800D02*
X639700Y1440300D01*
X88900Y1383200D02*
X88900Y1143000D01*
X88900Y1383200D02*
X197100Y1491400D01*
X222500Y1491400D02*
X222500Y1481500D01*
X246000Y1458000D01*
X389000Y1458000D01*
X422400Y1491400D01*
X614300Y1491400D02*
X614300Y1490300D01*
X580000Y1456000D02*
X474000Y1456000D01*
X580000Y1456000D02*
X614300Y1490300D01*
X447800Y1491400D02*
X447800Y1482200D01*
X474000Y1456000D01*
M02*
