G04 EAGLE Gerber RS-274X export*
G75*
%MOMM*%
%FSLAX34Y34*%
%LPD*%
%IN*%
%IPPOS*%
%AMOC8*
5,1,8,0,0,1.08239X$1,22.5*%
G01*
%ADD10C,0.254000*%


D10*
X0Y20000D02*
X76Y18257D01*
X304Y16527D01*
X681Y14824D01*
X1206Y13160D01*
X1874Y11548D01*
X2680Y10000D01*
X3617Y8528D01*
X4679Y7144D01*
X5858Y5858D01*
X7144Y4679D01*
X8528Y3617D01*
X10000Y2680D01*
X11548Y1874D01*
X13160Y1206D01*
X14824Y681D01*
X16527Y304D01*
X18257Y76D01*
X20000Y0D01*
X780000Y0D01*
X781743Y76D01*
X783473Y304D01*
X785176Y681D01*
X786840Y1206D01*
X788452Y1874D01*
X790000Y2680D01*
X791472Y3617D01*
X792856Y4679D01*
X794142Y5858D01*
X795321Y7144D01*
X796383Y8528D01*
X797321Y10000D01*
X798126Y11548D01*
X798794Y13160D01*
X799319Y14824D01*
X799696Y16527D01*
X799924Y18257D01*
X800000Y20000D01*
X800000Y1680000D01*
X799924Y1681743D01*
X799696Y1683473D01*
X799319Y1685176D01*
X798794Y1686840D01*
X798126Y1688452D01*
X797321Y1690000D01*
X796383Y1691472D01*
X795321Y1692856D01*
X794142Y1694142D01*
X792856Y1695321D01*
X791472Y1696383D01*
X790000Y1697321D01*
X788452Y1698126D01*
X786840Y1698794D01*
X785176Y1699319D01*
X783473Y1699696D01*
X781743Y1699924D01*
X780000Y1700000D01*
X20000Y1700000D01*
X18257Y1699924D01*
X16527Y1699696D01*
X14824Y1699319D01*
X13160Y1698794D01*
X11548Y1698126D01*
X10000Y1697321D01*
X8528Y1696383D01*
X7144Y1695321D01*
X5858Y1694142D01*
X4679Y1692856D01*
X3617Y1691472D01*
X2680Y1690000D01*
X1874Y1688452D01*
X1206Y1686840D01*
X681Y1685176D01*
X304Y1683473D01*
X76Y1681743D01*
X0Y1680000D01*
X0Y20000D01*
X225000Y1645299D02*
X224921Y1643898D01*
X224764Y1642504D01*
X224529Y1641121D01*
X224217Y1639753D01*
X223829Y1638405D01*
X223365Y1637081D01*
X222829Y1635785D01*
X222220Y1634521D01*
X221541Y1633293D01*
X220795Y1632105D01*
X219983Y1630961D01*
X219108Y1629864D01*
X218174Y1628818D01*
X217182Y1627826D01*
X216136Y1626892D01*
X215039Y1626017D01*
X213895Y1625205D01*
X212707Y1624459D01*
X211479Y1623780D01*
X210215Y1623171D01*
X208919Y1622635D01*
X207595Y1622171D01*
X206247Y1621783D01*
X204879Y1621471D01*
X203496Y1621236D01*
X202102Y1621079D01*
X200701Y1621000D01*
X199299Y1621000D01*
X197898Y1621079D01*
X196504Y1621236D01*
X195121Y1621471D01*
X193753Y1621783D01*
X192405Y1622171D01*
X191081Y1622635D01*
X189785Y1623171D01*
X188521Y1623780D01*
X187293Y1624459D01*
X186105Y1625205D01*
X184961Y1626017D01*
X183864Y1626892D01*
X182818Y1627826D01*
X181826Y1628818D01*
X180892Y1629864D01*
X180017Y1630961D01*
X179205Y1632105D01*
X178459Y1633293D01*
X177780Y1634521D01*
X177171Y1635785D01*
X176635Y1637081D01*
X176171Y1638405D01*
X175783Y1639753D01*
X175471Y1641121D01*
X175236Y1642504D01*
X175079Y1643898D01*
X175000Y1645299D01*
X175000Y1646701D01*
X175079Y1648102D01*
X175236Y1649496D01*
X175471Y1650879D01*
X175783Y1652247D01*
X176171Y1653595D01*
X176635Y1654919D01*
X177171Y1656215D01*
X177780Y1657479D01*
X178459Y1658707D01*
X179205Y1659895D01*
X180017Y1661039D01*
X180892Y1662136D01*
X181826Y1663182D01*
X182818Y1664174D01*
X183864Y1665108D01*
X184961Y1665983D01*
X186105Y1666795D01*
X187293Y1667541D01*
X188521Y1668220D01*
X189785Y1668829D01*
X191081Y1669365D01*
X192405Y1669829D01*
X193753Y1670217D01*
X195121Y1670529D01*
X196504Y1670764D01*
X197898Y1670921D01*
X199299Y1671000D01*
X200701Y1671000D01*
X202102Y1670921D01*
X203496Y1670764D01*
X204879Y1670529D01*
X206247Y1670217D01*
X207595Y1669829D01*
X208919Y1669365D01*
X210215Y1668829D01*
X211479Y1668220D01*
X212707Y1667541D01*
X213895Y1666795D01*
X215039Y1665983D01*
X216136Y1665108D01*
X217182Y1664174D01*
X218174Y1663182D01*
X219108Y1662136D01*
X219983Y1661039D01*
X220795Y1659895D01*
X221541Y1658707D01*
X222220Y1657479D01*
X222829Y1656215D01*
X223365Y1654919D01*
X223829Y1653595D01*
X224217Y1652247D01*
X224529Y1650879D01*
X224764Y1649496D01*
X224921Y1648102D01*
X225000Y1646701D01*
X225000Y1645299D01*
X625000Y1645299D02*
X624921Y1643898D01*
X624764Y1642504D01*
X624529Y1641121D01*
X624217Y1639753D01*
X623829Y1638405D01*
X623365Y1637081D01*
X622829Y1635785D01*
X622220Y1634521D01*
X621541Y1633293D01*
X620795Y1632105D01*
X619983Y1630961D01*
X619108Y1629864D01*
X618174Y1628818D01*
X617182Y1627826D01*
X616136Y1626892D01*
X615039Y1626017D01*
X613895Y1625205D01*
X612707Y1624459D01*
X611479Y1623780D01*
X610215Y1623171D01*
X608919Y1622635D01*
X607595Y1622171D01*
X606247Y1621783D01*
X604879Y1621471D01*
X603496Y1621236D01*
X602102Y1621079D01*
X600701Y1621000D01*
X599299Y1621000D01*
X597898Y1621079D01*
X596504Y1621236D01*
X595121Y1621471D01*
X593753Y1621783D01*
X592405Y1622171D01*
X591081Y1622635D01*
X589785Y1623171D01*
X588521Y1623780D01*
X587293Y1624459D01*
X586105Y1625205D01*
X584961Y1626017D01*
X583864Y1626892D01*
X582818Y1627826D01*
X581826Y1628818D01*
X580892Y1629864D01*
X580017Y1630961D01*
X579205Y1632105D01*
X578459Y1633293D01*
X577780Y1634521D01*
X577171Y1635785D01*
X576635Y1637081D01*
X576171Y1638405D01*
X575783Y1639753D01*
X575471Y1641121D01*
X575236Y1642504D01*
X575079Y1643898D01*
X575000Y1645299D01*
X575000Y1646701D01*
X575079Y1648102D01*
X575236Y1649496D01*
X575471Y1650879D01*
X575783Y1652247D01*
X576171Y1653595D01*
X576635Y1654919D01*
X577171Y1656215D01*
X577780Y1657479D01*
X578459Y1658707D01*
X579205Y1659895D01*
X580017Y1661039D01*
X580892Y1662136D01*
X581826Y1663182D01*
X582818Y1664174D01*
X583864Y1665108D01*
X584961Y1665983D01*
X586105Y1666795D01*
X587293Y1667541D01*
X588521Y1668220D01*
X589785Y1668829D01*
X591081Y1669365D01*
X592405Y1669829D01*
X593753Y1670217D01*
X595121Y1670529D01*
X596504Y1670764D01*
X597898Y1670921D01*
X599299Y1671000D01*
X600701Y1671000D01*
X602102Y1670921D01*
X603496Y1670764D01*
X604879Y1670529D01*
X606247Y1670217D01*
X607595Y1669829D01*
X608919Y1669365D01*
X610215Y1668829D01*
X611479Y1668220D01*
X612707Y1667541D01*
X613895Y1666795D01*
X615039Y1665983D01*
X616136Y1665108D01*
X617182Y1664174D01*
X618174Y1663182D01*
X619108Y1662136D01*
X619983Y1661039D01*
X620795Y1659895D01*
X621541Y1658707D01*
X622220Y1657479D01*
X622829Y1656215D01*
X623365Y1654919D01*
X623829Y1653595D01*
X624217Y1652247D01*
X624529Y1650879D01*
X624764Y1649496D01*
X624921Y1648102D01*
X625000Y1646701D01*
X625000Y1645299D01*
M02*
